# xmcd
#
# Track frame offsets: 
#        150
#        25240
#        43956
#        64799
#        86386
#        100697
#        121486
#        151002
#        174820
#        192937
#        210206
#        228459
#        255964
#
# Disc length: 3740 seconds
#
# Revision: 0
# Processed by: cddbd v1.5.2PL0 Copyright (c) Steve Scherf et al.
# Submitted via: ExactAudioCopyFreeDBPlugin 1.0
#
DISCID=960e9a0d
DTITLE=Ashford and Simpson - High-Rise
DYEAR=1983
DGENRE=Soul
TTITLE0=High-Rise
TTITLE1=Side Effect
TTITLE2=Experience (Love Had No Face)
TTITLE3=It's A Rush
TTITLE4=My Kinda Pick Me Up
TTITLE5=I'm Not That Tough
TTITLE6=It's Much Deeper
TTITLE7=Still Such A Thing
TTITLE8=High-Rise (Single Version)
TTITLE9=It's Much Deeper (Single Version)
TTITLE10=I'm Not That Tough (Single Version)
TTITLE11=High-Rise (12" Version)
TTITLE12=High-Rise (12" M+M Instrumental Mix)
EXTD=
EXTT0=
EXTT1=
EXTT2=
EXTT3=
EXTT4=
EXTT5=
EXTT6=
EXTT7=
EXTT8=
EXTT9=
EXTT10=
EXTT11=
EXTT12=
PLAYORDER=
